<svg width="147" height="24" viewBox="0 0 147 24" fill="none" xmlns="http://www.w3.org/2000/svg">
<path d="M7.728 19.168C6.416 19.168 5.248 18.888 4.224 18.328C3.2 17.752 2.392 16.968 1.8 15.976C1.208 14.984 0.912 13.856 0.912 12.592C0.912 11.312 1.208 10.184 1.8 9.208C2.392 8.216 3.2 7.44 4.224 6.88C5.248 6.32 6.416 6.04 7.728 6.04C9.056 6.04 10.232 6.32 11.256 6.88C12.296 7.44 13.104 8.208 13.68 9.184C14.272 10.16 14.568 11.296 14.568 12.592C14.568 13.856 14.272 14.984 13.68 15.976C13.104 16.968 12.296 17.752 11.256 18.328C10.232 18.888 9.056 19.168 7.728 19.168ZM7.728 16.6C8.464 16.6 9.12 16.44 9.696 16.12C10.272 15.8 10.72 15.336 11.04 14.728C11.376 14.12 11.544 13.408 11.544 12.592C11.544 11.76 11.376 11.048 11.04 10.456C10.72 9.848 10.272 9.384 9.696 9.064C9.12 8.744 8.472 8.584 7.752 8.584C7.016 8.584 6.36 8.744 5.784 9.064C5.224 9.384 4.776 9.848 4.44 10.456C4.104 11.048 3.936 11.76 3.936 12.592C3.936 13.408 4.104 14.12 4.44 14.728C4.776 15.336 5.224 15.8 5.784 16.12C6.36 16.44 7.008 16.6 7.728 16.6ZM22.8608 19.168C21.6288 19.168 20.5168 18.896 19.5248 18.352C18.5488 17.792 17.7808 17.024 17.2208 16.048C16.6608 15.072 16.3808 13.92 16.3808 12.592C16.3808 11.264 16.6608 10.112 17.2208 9.136C17.7808 8.16 18.5488 7.4 19.5248 6.856C20.5168 6.312 21.6288 6.04 22.8608 6.04C23.9328 6.04 24.8928 6.28 25.7408 6.76C26.5888 7.224 27.2608 7.936 27.7568 8.896C28.2528 9.856 28.5008 11.088 28.5008 12.592C28.5008 14.08 28.2608 15.312 27.7808 16.288C27.3008 17.248 26.6368 17.968 25.7888 18.448C24.9408 18.928 23.9648 19.168 22.8608 19.168ZM23.2208 16.6C23.9408 16.6 24.5808 16.44 25.1408 16.12C25.7168 15.8 26.1728 15.336 26.5088 14.728C26.8608 14.12 27.0368 13.408 27.0368 12.592C27.0368 11.76 26.8608 11.048 26.5088 10.456C26.1728 9.848 25.7168 9.384 25.1408 9.064C24.5808 8.744 23.9408 8.584 23.2208 8.584C22.5008 8.584 21.8528 8.744 21.2768 9.064C20.7168 9.384 20.2608 9.848 19.9088 10.456C19.5728 11.048 19.4048 11.76 19.4048 12.592C19.4048 13.408 19.5728 14.12 19.9088 14.728C20.2608 15.336 20.7168 15.8 21.2768 16.12C21.8528 16.44 22.5008 16.6 23.2208 16.6ZM27.1088 19V15.976L27.2288 12.568L26.9888 9.16V1.192H29.9648V19H27.1088ZM33.9133 19V6.184H36.9133V19H33.9133ZM35.4253 4.072C34.8653 4.072 34.4013 3.896 34.0333 3.544C33.6813 3.192 33.5053 2.768 33.5053 2.272C33.5053 1.76 33.6813 1.336 34.0333 0.999999C34.4013 0.647999 34.8653 0.472 35.4253 0.472C35.9853 0.472 36.4413 0.639999 36.7933 0.975999C37.1613 1.296 37.3453 1.704 37.3453 2.2C37.3453 2.728 37.1693 3.176 36.8173 3.544C36.4653 3.896 36.0013 4.072 35.4253 4.072ZM48.1228 6.04C49.1468 6.04 50.0588 6.24 50.8588 6.64C51.6748 7.04 52.3148 7.656 52.7788 8.488C53.2428 9.304 53.4748 10.36 53.4748 11.656V19H50.4748V12.04C50.4748 10.904 50.2028 10.056 49.6588 9.496C49.1308 8.936 48.3868 8.656 47.4268 8.656C46.7228 8.656 46.0988 8.8 45.5548 9.088C45.0108 9.376 44.5868 9.808 44.2828 10.384C43.9948 10.944 43.8508 11.656 43.8508 12.52V19H40.8508V6.184H43.7068V9.64L43.2028 8.584C43.6508 7.768 44.2988 7.144 45.1468 6.712C46.0108 6.264 47.0028 6.04 48.1228 6.04Z" fill="#9747FF"/>
<path d="M63.9698 19V6.4H65.6018V9.832L65.4338 9.232C65.7858 8.272 66.3778 7.544 67.2098 7.048C68.0418 6.536 69.0738 6.28 70.3058 6.28V7.936C70.2418 7.936 70.1778 7.936 70.1138 7.936C70.0498 7.92 69.9858 7.912 69.9218 7.912C68.5938 7.912 67.5538 8.32 66.8018 9.136C66.0498 9.936 65.6738 11.08 65.6738 12.568V19H63.9698ZM78.6499 19.12C77.3379 19.12 76.1859 18.848 75.1939 18.304C74.2019 17.744 73.4259 16.984 72.8659 16.024C72.3059 15.048 72.0259 13.936 72.0259 12.688C72.0259 11.44 72.2899 10.336 72.8179 9.376C73.3619 8.416 74.0979 7.664 75.0259 7.12C75.9699 6.56 77.0259 6.28 78.1939 6.28C79.3779 6.28 80.4259 6.552 81.3379 7.096C82.2659 7.624 82.9939 8.376 83.5219 9.352C84.0499 10.312 84.3139 11.424 84.3139 12.688C84.3139 12.768 84.3059 12.856 84.2899 12.952C84.2899 13.032 84.2899 13.12 84.2899 13.216H73.3219V11.944H83.3779L82.7059 12.448C82.7059 11.536 82.5059 10.728 82.1059 10.024C81.7219 9.304 81.1939 8.744 80.5219 8.344C79.8499 7.944 79.0739 7.744 78.1939 7.744C77.3299 7.744 76.5539 7.944 75.8659 8.344C75.1779 8.744 74.6419 9.304 74.2579 10.024C73.8739 10.744 73.6819 11.568 73.6819 12.496V12.76C73.6819 13.72 73.8899 14.568 74.3059 15.304C74.7379 16.024 75.3299 16.592 76.0819 17.008C76.8499 17.408 77.7219 17.608 78.6979 17.608C79.4659 17.608 80.1779 17.472 80.8339 17.2C81.5059 16.928 82.0819 16.512 82.5619 15.952L83.5219 17.056C82.9619 17.728 82.2579 18.24 81.4099 18.592C80.5779 18.944 79.6579 19.12 78.6499 19.12ZM93.0143 19.12C91.7663 19.12 90.6463 18.848 89.6543 18.304C88.6783 17.744 87.9103 16.984 87.3503 16.024C86.7903 15.048 86.5103 13.936 86.5103 12.688C86.5103 11.424 86.7903 10.312 87.3503 9.352C87.9103 8.392 88.6783 7.64 89.6543 7.096C90.6463 6.552 91.7663 6.28 93.0143 6.28C94.0863 6.28 95.0543 6.488 95.9183 6.904C96.7823 7.32 97.4623 7.944 97.9583 8.776L96.6863 9.64C96.2543 9 95.7183 8.528 95.0783 8.224C94.4383 7.92 93.7423 7.768 92.9903 7.768C92.0943 7.768 91.2863 7.976 90.5663 8.392C89.8463 8.792 89.2783 9.36 88.8623 10.096C88.4463 10.832 88.2383 11.696 88.2383 12.688C88.2383 13.68 88.4463 14.544 88.8623 15.28C89.2783 16.016 89.8463 16.592 90.5663 17.008C91.2863 17.408 92.0943 17.608 92.9903 17.608C93.7423 17.608 94.4383 17.456 95.0783 17.152C95.7183 16.848 96.2543 16.384 96.6863 15.76L97.9583 16.624C97.4623 17.44 96.7823 18.064 95.9183 18.496C95.0543 18.912 94.0863 19.12 93.0143 19.12ZM101.118 19V6.4H102.822V19H101.118ZM101.982 3.616C101.63 3.616 101.334 3.496 101.094 3.256C100.854 3.016 100.734 2.728 100.734 2.392C100.734 2.056 100.854 1.776 101.094 1.552C101.334 1.312 101.63 1.192 101.982 1.192C102.334 1.192 102.63 1.304 102.87 1.528C103.11 1.752 103.23 2.032 103.23 2.368C103.23 2.72 103.11 3.016 102.87 3.256C102.646 3.496 102.35 3.616 101.982 3.616ZM114.068 19.12C112.98 19.12 111.996 18.872 111.116 18.376C110.236 17.864 109.532 17.136 109.004 16.192C108.492 15.232 108.236 14.064 108.236 12.688C108.236 11.312 108.492 10.152 109.004 9.208C109.516 8.248 110.212 7.52 111.092 7.024C111.972 6.528 112.964 6.28 114.068 6.28C115.268 6.28 116.34 6.552 117.284 7.096C118.244 7.624 118.996 8.376 119.54 9.352C120.084 10.312 120.356 11.424 120.356 12.688C120.356 13.968 120.084 15.088 119.54 16.048C118.996 17.008 118.244 17.76 117.284 18.304C116.34 18.848 115.268 19.12 114.068 19.12ZM107.564 23.656V6.4H109.196V10.192L109.028 12.712L109.268 15.256V23.656H107.564ZM113.948 17.608C114.844 17.608 115.644 17.408 116.348 17.008C117.052 16.592 117.612 16.016 118.028 15.28C118.444 14.528 118.652 13.664 118.652 12.688C118.652 11.712 118.444 10.856 118.028 10.12C117.612 9.384 117.052 8.808 116.348 8.392C115.644 7.976 114.844 7.768 113.948 7.768C113.052 7.768 112.244 7.976 111.523 8.392C110.82 8.808 110.26 9.384 109.844 10.12C109.444 10.856 109.244 11.712 109.244 12.688C109.244 13.664 109.444 14.528 109.844 15.28C110.26 16.016 110.82 16.592 111.523 17.008C112.244 17.408 113.052 17.608 113.948 17.608ZM129.181 19.12C127.869 19.12 126.717 18.848 125.725 18.304C124.733 17.744 123.957 16.984 123.397 16.024C122.837 15.048 122.557 13.936 122.557 12.688C122.557 11.44 122.821 10.336 123.349 9.376C123.893 8.416 124.629 7.664 125.557 7.12C126.501 6.56 127.557 6.28 128.725 6.28C129.909 6.28 130.957 6.552 131.869 7.096C132.797 7.624 133.525 8.376 134.053 9.352C134.581 10.312 134.845 11.424 134.845 12.688C134.845 12.768 134.837 12.856 134.821 12.952C134.821 13.032 134.821 13.12 134.821 13.216H123.853V11.944H133.909L133.237 12.448C133.237 11.536 133.037 10.728 132.637 10.024C132.253 9.304 131.725 8.744 131.053 8.344C130.381 7.944 129.605 7.744 128.725 7.744C127.861 7.744 127.085 7.944 126.397 8.344C125.709 8.744 125.173 9.304 124.789 10.024C124.405 10.744 124.213 11.568 124.213 12.496V12.76C124.213 13.72 124.421 14.568 124.837 15.304C125.269 16.024 125.861 16.592 126.613 17.008C127.381 17.408 128.253 17.608 129.229 17.608C129.997 17.608 130.709 17.472 131.365 17.2C132.037 16.928 132.613 16.512 133.093 15.952L134.053 17.056C133.493 17.728 132.789 18.24 131.941 18.592C131.109 18.944 130.189 19.12 129.181 19.12ZM141.698 19.12C140.658 19.12 139.674 18.976 138.746 18.688C137.818 18.384 137.09 18.008 136.562 17.56L137.33 16.216C137.842 16.6 138.498 16.936 139.298 17.224C140.098 17.496 140.938 17.632 141.818 17.632C143.018 17.632 143.882 17.448 144.41 17.08C144.938 16.696 145.202 16.192 145.202 15.568C145.202 15.104 145.05 14.744 144.746 14.488C144.458 14.216 144.074 14.016 143.594 13.888C143.114 13.744 142.578 13.624 141.986 13.528C141.394 13.432 140.802 13.32 140.21 13.192C139.634 13.064 139.106 12.88 138.626 12.64C138.146 12.384 137.754 12.04 137.45 11.608C137.162 11.176 137.018 10.6 137.018 9.88C137.018 9.192 137.21 8.576 137.594 8.032C137.978 7.488 138.538 7.064 139.274 6.76C140.026 6.44 140.938 6.28 142.01 6.28C142.826 6.28 143.642 6.392 144.458 6.616C145.274 6.824 145.946 7.104 146.474 7.456L145.73 8.824C145.17 8.44 144.57 8.168 143.93 8.008C143.29 7.832 142.65 7.744 142.01 7.744C140.874 7.744 140.034 7.944 139.49 8.344C138.962 8.728 138.698 9.224 138.698 9.832C138.698 10.312 138.842 10.688 139.13 10.96C139.434 11.232 139.826 11.448 140.306 11.608C140.802 11.752 141.338 11.872 141.914 11.968C142.506 12.064 143.09 12.184 143.666 12.328C144.258 12.456 144.794 12.64 145.274 12.88C145.77 13.104 146.162 13.432 146.45 13.864C146.754 14.28 146.906 14.832 146.906 15.52C146.906 16.256 146.698 16.896 146.282 17.44C145.882 17.968 145.29 18.384 144.506 18.688C143.738 18.976 142.802 19.12 141.698 19.12Z" fill="black"/>
</svg>
